<svg width="13" height="15" viewBox="0 0 13 15" fill="none" xmlns="http://www.w3.org/2000/svg">
<path d="M12.0851 1.77829C11.7579 1.64266 11.3816 1.71791 11.1314 1.96816C10.0254 3.07329 8.2255 3.07416 7.11862 1.96816C5.32925 0.180535 2.41988 0.180535 0.631375 1.96816C0.466875 2.13179 0.375 2.35491 0.375 2.58679V13.9618C0.375 14.4448 0.766125 14.8368 1.25 14.8368C1.73388 14.8368 2.125 14.4448 2.125 13.9618V9.97791C3.23712 9.10554 4.85588 9.18079 5.88138 10.2054C7.67075 11.993 10.581 11.993 12.3686 10.2054C12.5331 10.0409 12.625 9.81866 12.625 9.58679V2.58679C12.625 2.23241 12.4115 1.91391 12.0851 1.77829Z" fill="white"/>
</svg>
