<svg width="14" height="20" viewBox="0 0 14 20" fill="none" xmlns="http://www.w3.org/2000/svg">
<path d="M11.9584 8.25982H11.4355L11.4354 5.08321C11.4354 2.7755 9.55847 0.898438 7.25129 0.898438C4.94358 0.898438 3.06651 2.77568 3.06651 5.08321V8.25982H2.54363C1.64375 8.25982 0.914062 8.98915 0.914062 9.88938V17.4485C0.914062 18.3484 1.64357 19.0781 2.54363 19.0781H11.9586C12.8585 19.0781 13.5883 18.3486 13.5883 17.4485V9.88938C13.5883 8.98933 12.8585 8.25995 11.9586 8.25995L11.9584 8.25982ZM4.53085 5.08321C4.53085 3.58297 5.75143 2.36243 7.25163 2.36243C8.75135 2.36243 9.97159 3.58301 9.97159 5.08321V8.25982H4.53098L4.53085 5.08321ZM8.08515 13.5862V15.6207C8.08515 16.0811 7.71205 16.4542 7.25128 16.4542C6.79088 16.4542 6.41776 16.0811 6.41776 15.6207V13.5862C6.0273 13.3198 5.77113 12.8713 5.77113 12.3632C5.77113 11.5454 6.43393 10.8826 7.25128 10.8826C8.06881 10.8826 8.73143 11.5456 8.73143 12.3632C8.73143 12.8711 8.47527 13.3193 8.08515 13.5862Z" fill="black"/>
</svg>
