<svg width="39" height="41" viewBox="0 0 39 41" fill="none" xmlns="http://www.w3.org/2000/svg">
<path d="M2.50715 31.2779C2.25546 31.2779 2.00376 31.1818 1.81164 30.9897C1.42737 30.6054 1.42737 29.9826 1.81164 29.5983L7.49982 23.9102C7.88409 23.5259 8.50686 23.5262 8.89086 23.9102C9.27513 24.2944 9.27513 24.9172 8.89086 25.3015L3.20296 30.99C3.01083 31.1818 2.75886 31.2779 2.50717 31.2779L2.50715 31.2779Z" fill="white"/>
<path d="M3.78059 36.7287C3.5289 36.7287 3.2772 36.6326 3.08507 36.4405C2.70081 36.0562 2.70081 35.4334 3.08507 35.0491L9.01399 29.1202C9.39825 28.736 10.021 28.736 10.405 29.1202C10.7893 29.5045 10.7893 30.1273 10.405 30.5116L4.47612 36.4405C4.28426 36.6326 4.03229 36.7287 3.7806 36.7287H3.78059Z" fill="white"/>
<path d="M38.278 1.24513C38.0548 1.02198 37.7381 0.919329 37.4263 0.969554C37.3121 0.987944 34.5855 1.43588 30.8699 2.85547C28.6903 3.68826 26.6191 4.68539 24.7145 5.81954C22.3241 7.2427 20.1893 8.88704 18.3692 10.7071C15.2981 13.7782 12.7883 17.6513 10.9099 22.2187C10.7589 22.5859 10.8434 23.0078 11.124 23.2886L12.9838 25.1485L17.1849 20.9474C17.5692 20.5631 18.1919 20.5631 18.5762 20.9474C18.9605 21.3316 18.9605 21.9544 18.5762 22.3387L14.3751 26.5398L16.2347 28.3996C16.423 28.5877 16.6744 28.6878 16.9305 28.6878C17.0565 28.6878 17.1836 28.6637 17.3046 28.6137C21.8721 26.7353 25.7449 24.2257 28.8162 21.1544C30.6359 19.3344 32.2806 17.1995 33.7037 14.8091C34.8379 12.9042 35.835 10.8333 36.6678 8.65369C38.0874 4.93813 38.5353 2.21149 38.5537 2.0973C38.6037 1.78523 38.5013 1.46821 38.2779 1.24506L38.278 1.24513ZM29.421 15.0487C28.7604 15.7094 27.8824 16.0733 26.9481 16.0733H26.9478C26.0135 16.0733 25.1351 15.7094 24.4748 15.049C23.8141 14.3884 23.4505 13.5101 23.4505 12.5758C23.4505 11.6414 23.8141 10.7631 24.4748 10.1028C25.1355 9.44211 26.0137 9.07816 26.9481 9.07816C27.8824 9.07816 28.7607 9.44184 29.421 10.1025C30.7849 11.4661 30.7849 13.6849 29.421 15.0488L29.421 15.0487Z" fill="white"/>
<path d="M9.22981 38.0005C8.97812 38.0005 8.72642 37.9045 8.53429 37.7123C8.15003 37.3281 8.15003 36.7053 8.53429 36.321L14.2225 30.6328C14.6067 30.2488 15.2295 30.2486 15.6135 30.6328C15.9978 31.0171 15.9978 31.6399 15.6135 32.0241L9.92533 37.7123C9.7332 37.9045 9.48151 38.0005 9.22982 38.0005H9.22981Z" fill="white"/>
<path d="M16.0034 11.0742L11.0612 12.0362C10.8693 12.0735 10.6931 12.1671 10.5548 12.3052L3.82442 19.0141C3.51784 19.3196 3.44702 19.7898 3.65013 20.1721C3.82305 20.4976 4.15983 20.6947 4.51882 20.6947C4.58113 20.6947 4.64426 20.6887 4.70711 20.6766L10.4798 19.5526C12.002 16.3476 13.852 13.5084 16.0033 11.0744L16.0034 11.0742Z" fill="white"/>
<path d="M19.97 29.0463L18.8463 34.819C18.7637 35.2439 18.9682 35.6728 19.3508 35.8757C19.4965 35.9531 19.6546 35.9907 19.8116 35.9907C20.0672 35.9907 20.3194 35.8913 20.5088 35.7014L27.2175 28.9708C27.3556 28.8324 27.4489 28.6559 27.4865 28.4644L28.4485 23.5225C26.0141 25.6735 23.175 27.5234 19.9703 29.0462L19.97 29.0463Z" fill="white"/>
<path d="M0.536109 39.8812C0.527286 39.8856 0.517912 39.8889 0.508537 39.8911C0.499714 39.8933 0.49034 39.8944 0.480966 39.8944C0.450637 39.8944 0.426926 39.8864 0.409281 39.8701C0.391635 39.8533 0.382812 39.8304 0.382812 39.8018C0.382812 39.7725 0.391635 39.7496 0.409281 39.7334C0.426927 39.7166 0.450639 39.708 0.480966 39.708C0.49034 39.708 0.499714 39.7091 0.508537 39.7113C0.517912 39.7135 0.527286 39.7168 0.536109 39.7212V39.7587C0.527286 39.7529 0.518739 39.7485 0.510742 39.7455C0.502471 39.7427 0.493648 39.7411 0.484274 39.7411C0.468006 39.7411 0.455048 39.7466 0.445673 39.7576C0.436023 39.7681 0.431336 39.7827 0.431336 39.8018C0.431336 39.8202 0.436023 39.8348 0.445673 39.8459C0.455047 39.8563 0.468006 39.8613 0.484274 39.8613C0.493648 39.8613 0.502471 39.8599 0.510742 39.8569C0.518738 39.8541 0.527286 39.8497 0.536109 39.8437V39.8812Z" fill="white"/>
<path d="M0.670675 39.7936C0.666814 39.7914 0.66323 39.79 0.659646 39.7892C0.655786 39.7886 0.651925 39.7881 0.647514 39.7881C0.636485 39.7881 0.627938 39.792 0.622148 39.7991C0.616082 39.8066 0.613325 39.8168 0.613325 39.83V39.8918H0.570312V39.7561H0.613325V39.7793C0.619115 39.7704 0.625457 39.7644 0.632073 39.7605C0.639242 39.7561 0.648065 39.7539 0.658542 39.7539H0.662953H0.670674L0.670675 39.7936Z" fill="white"/>
<path d="M0.828072 39.8234V39.8366H0.727709C0.728261 39.8463 0.731569 39.8537 0.737635 39.8587C0.744252 39.8639 0.753075 39.8664 0.764103 39.8664C0.773478 39.8664 0.783128 39.8653 0.792778 39.8631C0.802152 39.8603 0.811802 39.8559 0.821453 39.8499V39.884C0.810975 39.8879 0.800774 39.8904 0.790572 39.8918C0.780922 39.894 0.770997 39.8951 0.760795 39.8951C0.735704 39.8951 0.71668 39.889 0.703445 39.8763C0.690211 39.8639 0.683594 39.8465 0.683594 39.8245C0.683594 39.8024 0.690211 39.7853 0.703445 39.7727C0.71668 39.7602 0.734877 39.7539 0.758589 39.7539C0.778992 39.7539 0.795535 39.7602 0.808217 39.7727C0.821452 39.7853 0.828069 39.8022 0.828069 39.8234L0.828072 39.8234ZM0.783957 39.809C0.783957 39.8011 0.7812 39.7947 0.776237 39.7903C0.771825 39.7853 0.765484 39.7826 0.757488 39.7826C0.749217 39.7826 0.742599 39.7848 0.737637 39.7892C0.732398 39.7936 0.72909 39.8002 0.727711 39.809H0.783957Z" fill="white"/>
<path d="M0.922147 39.8311C0.912497 39.8311 0.905603 39.8328 0.901192 39.8355C0.89678 39.8385 0.894575 39.843 0.894575 39.8487C0.894575 39.8548 0.896229 39.8592 0.900089 39.862C0.903673 39.865 0.908912 39.8664 0.915529 39.8664C0.923525 39.8664 0.930142 39.8636 0.935381 39.8576C0.941171 39.8518 0.944204 39.8443 0.944204 39.8355V39.8311H0.922147ZM0.988319 39.8146V39.8918H0.944204V39.8719C0.938138 39.8802 0.931521 39.886 0.924352 39.8896C0.917735 39.8931 0.908912 39.8951 0.897884 39.8951C0.883822 39.8951 0.872517 39.8912 0.863694 39.8829C0.855423 39.8749 0.851562 39.8642 0.851562 39.851C0.851562 39.8355 0.856525 39.8242 0.867003 39.8168C0.878031 39.8096 0.895126 39.8057 0.918838 39.8057H0.944204V39.8024C0.944204 39.7953 0.941171 39.79 0.935381 39.787C0.930143 39.7842 0.922147 39.7826 0.911118 39.7826C0.901468 39.7826 0.892645 39.7837 0.884649 39.7859C0.877205 39.7875 0.86976 39.79 0.862592 39.7936V39.7605C0.871966 39.7583 0.88134 39.7569 0.890163 39.7561C0.899537 39.7547 0.909188 39.7539 0.918838 39.7539C0.943101 39.7539 0.960747 39.7589 0.971775 39.7682C0.982804 39.7779 0.988319 39.7933 0.988319 39.8146V39.8146Z" fill="white"/>
<path d="M1.07288 39.7188V39.7562H1.117V39.7871H1.07288V39.8445C1.07288 39.8511 1.07399 39.8555 1.07619 39.8577C1.0784 39.8599 1.08308 39.861 1.09053 39.861H1.11369V39.8919H1.07619C1.0591 39.8919 1.04696 39.8886 1.0398 39.882C1.03235 39.8748 1.02877 39.8621 1.02877 39.8445V39.7871H1.00781V39.7562H1.02877V39.7188L1.07288 39.7188Z" fill="white"/>
<path d="M1.27729 39.8234V39.8366H1.17693C1.17748 39.8463 1.18079 39.8537 1.18685 39.8587C1.19347 39.8639 1.20229 39.8664 1.21332 39.8664C1.2227 39.8664 1.23235 39.8653 1.242 39.8631C1.25137 39.8603 1.26102 39.8559 1.27067 39.8499V39.884C1.26019 39.8879 1.24999 39.8904 1.23979 39.8918C1.23014 39.894 1.22022 39.8951 1.21001 39.8951C1.18492 39.8951 1.1659 39.889 1.15266 39.8763C1.13943 39.8639 1.13281 39.8465 1.13281 39.8245C1.13281 39.8024 1.13943 39.7853 1.15266 39.7727C1.1659 39.7602 1.1841 39.7539 1.20781 39.7539C1.22821 39.7539 1.24475 39.7602 1.25744 39.7727C1.27067 39.7853 1.27729 39.8022 1.27729 39.8234L1.27729 39.8234ZM1.23318 39.809C1.23318 39.8011 1.23042 39.7947 1.22546 39.7903C1.22104 39.7853 1.2147 39.7826 1.20671 39.7826C1.19844 39.7826 1.19182 39.7848 1.18686 39.7892C1.18162 39.7936 1.17831 39.8002 1.17693 39.809H1.23318Z" fill="white"/>
<path d="M1.40225 39.7758V39.7041H1.44636V39.8916H1.40225V39.8717C1.39618 39.88 1.38956 39.8858 1.38239 39.8894C1.37578 39.893 1.3675 39.8949 1.35813 39.8949C1.34104 39.8949 1.32725 39.8883 1.31622 39.875C1.30574 39.8618 1.30078 39.845 1.30078 39.8243C1.30078 39.8039 1.30574 39.7868 1.31622 39.7736C1.32725 39.7603 1.34104 39.7537 1.35813 39.7537C1.36695 39.7537 1.37495 39.7557 1.38239 39.7592C1.38956 39.7631 1.39618 39.7686 1.40225 39.7758V39.7758ZM1.37357 39.864C1.38294 39.864 1.39011 39.8607 1.39453 39.8541C1.39949 39.8469 1.40225 39.837 1.40225 39.8243C1.40225 39.8111 1.39949 39.8012 1.39453 39.7945C1.39011 39.7879 1.38295 39.7846 1.37357 39.7846C1.36475 39.7846 1.35758 39.7879 1.35262 39.7945C1.3482 39.8012 1.346 39.8111 1.346 39.8243C1.346 39.837 1.3482 39.8469 1.35262 39.8541C1.35758 39.8607 1.36475 39.864 1.37357 39.864Z" fill="white"/>
<path d="M1.642 39.864C1.65137 39.864 1.65854 39.8607 1.66295 39.8541C1.66792 39.8469 1.67067 39.837 1.67067 39.8243C1.67067 39.8111 1.66792 39.8012 1.66295 39.7945C1.65854 39.7879 1.65137 39.7846 1.642 39.7846C1.63235 39.7846 1.6249 39.7879 1.61994 39.7945C1.61553 39.8012 1.61332 39.8111 1.61332 39.8243C1.61332 39.837 1.61553 39.8469 1.61994 39.8541C1.6249 39.8607 1.63235 39.864 1.642 39.864ZM1.61332 39.7758C1.61911 39.7686 1.62573 39.7631 1.63318 39.7592C1.64034 39.7557 1.64889 39.7537 1.65854 39.7537C1.67453 39.7537 1.68777 39.7603 1.69825 39.7736C1.70927 39.7868 1.71479 39.8039 1.71479 39.8243C1.71479 39.845 1.70927 39.8618 1.69825 39.875C1.68777 39.8883 1.67453 39.8949 1.65854 39.8949C1.64889 39.8949 1.64035 39.893 1.63318 39.8894C1.62573 39.8858 1.61911 39.88 1.61332 39.8717V39.8916H1.57031V39.7041H1.61332V39.7758Z" fill="white"/>
<path d="M1.73047 39.7559H1.77348L1.80988 39.8485L1.84076 39.7559H1.88377L1.82642 39.9047C1.82118 39.9194 1.81456 39.9296 1.80657 39.9356C1.79912 39.9414 1.7892 39.9445 1.77679 39.9445H1.75142V39.9169H1.76576C1.77293 39.9169 1.77817 39.9152 1.7812 39.9125C1.78478 39.9103 1.78727 39.9061 1.78892 39.9003L1.79002 39.897L1.73047 39.7559Z" fill="white"/>
<path d="M2.05496 39.8311C2.04531 39.8311 2.03842 39.8328 2.034 39.8355C2.02959 39.8385 2.02739 39.843 2.02739 39.8487C2.02739 39.8548 2.02904 39.8592 2.0329 39.862C2.03649 39.865 2.04172 39.8664 2.04834 39.8664C2.05634 39.8664 2.06295 39.8636 2.06819 39.8576C2.07398 39.8518 2.07702 39.8443 2.07702 39.8355V39.8311H2.05496ZM2.12113 39.8146V39.8918H2.07702V39.8719C2.07095 39.8802 2.06433 39.886 2.05716 39.8896C2.05055 39.8931 2.04172 39.8951 2.0307 39.8951C2.01663 39.8951 2.00533 39.8912 1.99651 39.8829C1.98824 39.8749 1.98438 39.8642 1.98438 39.851C1.98438 39.8355 1.98934 39.8242 1.99982 39.8168C2.01084 39.8096 2.02794 39.8057 2.05165 39.8057H2.07702V39.8024C2.07702 39.7953 2.07398 39.79 2.06819 39.787C2.06296 39.7842 2.05496 39.7826 2.04393 39.7826C2.03428 39.7826 2.02546 39.7837 2.01746 39.7859C2.01002 39.7875 2.00257 39.79 1.9954 39.7936V39.7605C2.00478 39.7583 2.01415 39.7569 2.02298 39.7561C2.03235 39.7547 2.042 39.7539 2.05165 39.7539C2.07591 39.7539 2.09356 39.7589 2.10459 39.7682C2.11562 39.7779 2.12113 39.7933 2.12113 39.8146V39.8146Z" fill="white"/>
<path d="M2.23184 39.864C2.24122 39.864 2.24839 39.8607 2.2528 39.8541C2.25776 39.8469 2.26052 39.837 2.26052 39.8243C2.26052 39.8111 2.25776 39.8012 2.2528 39.7945C2.24839 39.7879 2.24122 39.7846 2.23184 39.7846C2.22219 39.7846 2.21475 39.7879 2.20979 39.7945C2.20537 39.8012 2.20317 39.8111 2.20317 39.8243C2.20317 39.837 2.20537 39.8469 2.20979 39.8541C2.21475 39.8607 2.22219 39.864 2.23184 39.864ZM2.20317 39.7758C2.20896 39.7686 2.21558 39.7631 2.22302 39.7592C2.23019 39.7557 2.23874 39.7537 2.24839 39.7537C2.26438 39.7537 2.27761 39.7603 2.28809 39.7736C2.29912 39.7868 2.30463 39.8039 2.30463 39.8243C2.30463 39.845 2.29912 39.8618 2.28809 39.875C2.27761 39.8883 2.26438 39.8949 2.24839 39.8949C2.23874 39.8949 2.23019 39.893 2.22302 39.8894C2.21558 39.8858 2.20896 39.88 2.20317 39.8717V39.8916H2.16016V39.7041H2.20317V39.7758Z" fill="white"/>
<path d="M2.42959 39.7758V39.7041H2.4737V39.8916H2.42959V39.8717C2.42352 39.88 2.41691 39.8858 2.40974 39.8894C2.40312 39.893 2.39485 39.8949 2.38547 39.8949C2.36838 39.8949 2.35459 39.8883 2.34357 39.875C2.33309 39.8618 2.32812 39.845 2.32812 39.8243C2.32812 39.8039 2.33309 39.7868 2.34357 39.7736C2.35459 39.7603 2.36838 39.7537 2.38547 39.7537C2.3943 39.7537 2.40229 39.7557 2.40974 39.7592C2.41691 39.7631 2.42352 39.7686 2.42959 39.7758V39.7758ZM2.40091 39.864C2.41029 39.864 2.41746 39.8607 2.42187 39.8541C2.42683 39.8469 2.42959 39.837 2.42959 39.8243C2.42959 39.8111 2.42683 39.8012 2.42187 39.7945C2.41746 39.7879 2.41029 39.7846 2.40091 39.7846C2.39209 39.7846 2.38492 39.7879 2.37996 39.7945C2.37555 39.8012 2.37334 39.8111 2.37334 39.8243C2.37334 39.837 2.37555 39.8469 2.37996 39.8541C2.38492 39.8607 2.39209 39.864 2.40091 39.864Z" fill="white"/>
<path d="M2.64838 39.8234V39.8366H2.54802C2.54857 39.8463 2.55188 39.8537 2.55795 39.8587C2.56456 39.8639 2.57339 39.8664 2.58442 39.8664C2.59379 39.8664 2.60344 39.8653 2.61309 39.8631C2.62246 39.8603 2.63211 39.8559 2.64177 39.8499V39.884C2.63129 39.8879 2.62109 39.8904 2.61088 39.8918C2.60123 39.894 2.59131 39.8951 2.58111 39.8951C2.55602 39.8951 2.53699 39.889 2.52376 39.8763C2.51052 39.8639 2.50391 39.8465 2.50391 39.8245C2.50391 39.8024 2.51052 39.7853 2.52376 39.7727C2.53699 39.7602 2.55519 39.7539 2.5789 39.7539C2.5993 39.7539 2.61585 39.7602 2.62853 39.7727C2.64176 39.7853 2.64838 39.8022 2.64838 39.8234L2.64838 39.8234ZM2.60427 39.809C2.60427 39.8011 2.60151 39.7947 2.59655 39.7903C2.59214 39.7853 2.5858 39.7826 2.5778 39.7826C2.56953 39.7826 2.56291 39.7848 2.55795 39.7892C2.55271 39.7936 2.5494 39.8002 2.54802 39.809H2.60427Z" fill="white"/>
<path d="M2.78005 39.7936C2.77619 39.7914 2.77261 39.79 2.76902 39.7892C2.76516 39.7886 2.7613 39.7881 2.75689 39.7881C2.74586 39.7881 2.73731 39.792 2.73152 39.7991C2.72546 39.8066 2.7227 39.8168 2.7227 39.83V39.8918H2.67969V39.7561H2.7227V39.7793C2.72849 39.7704 2.73483 39.7644 2.74145 39.7605C2.74862 39.7561 2.75744 39.7539 2.76792 39.7539H2.77233H2.78005L2.78005 39.7936Z" fill="white"/>
<path d="M2.90114 39.7936C2.89728 39.7914 2.8937 39.79 2.89011 39.7892C2.88625 39.7886 2.88239 39.7881 2.87798 39.7881C2.86695 39.7881 2.85841 39.792 2.85262 39.7991C2.84655 39.8066 2.84379 39.8168 2.84379 39.83V39.8918H2.80078V39.7561H2.84379V39.7793C2.84958 39.7704 2.85593 39.7644 2.86254 39.7605C2.86971 39.7561 2.87853 39.7539 2.88901 39.7539H2.89342H2.90114L2.90114 39.7936Z" fill="white"/>
<path d="M2.98074 39.8311C2.97109 39.8311 2.9642 39.8328 2.95979 39.8355C2.95537 39.8385 2.95317 39.843 2.95317 39.8487C2.95317 39.8548 2.95482 39.8592 2.95868 39.862C2.96227 39.865 2.96751 39.8664 2.97412 39.8664C2.98212 39.8664 2.98874 39.8636 2.99397 39.8576C2.99976 39.8518 3.0028 39.8443 3.0028 39.8355V39.8311H2.98074ZM3.04691 39.8146V39.8918H3.0028V39.8719C2.99673 39.8802 2.99011 39.886 2.98295 39.8896C2.97633 39.8931 2.96751 39.8951 2.95648 39.8951C2.94242 39.8951 2.93111 39.8912 2.92229 39.8829C2.91402 39.8749 2.91016 39.8642 2.91016 39.851C2.91016 39.8355 2.91512 39.8242 2.9256 39.8168C2.93663 39.8096 2.95372 39.8057 2.97743 39.8057H3.0028V39.8024C3.0028 39.7953 2.99976 39.79 2.99397 39.787C2.98874 39.7842 2.98074 39.7826 2.96971 39.7826C2.96006 39.7826 2.95124 39.7837 2.94324 39.7859C2.9358 39.7875 2.92835 39.79 2.92119 39.7936V39.7605C2.93056 39.7583 2.93993 39.7569 2.94876 39.7561C2.95813 39.7547 2.96778 39.7539 2.97743 39.7539C3.00169 39.7539 3.01934 39.7589 3.03037 39.7682C3.0414 39.7779 3.04691 39.7933 3.04691 39.8146V39.8146Z" fill="white"/>
<path d="M3.15202 39.7848C3.14237 39.7848 3.13492 39.7881 3.12996 39.7947C3.12472 39.8013 3.12224 39.8113 3.12224 39.8245C3.12224 39.8372 3.12472 39.8471 3.12996 39.8543C3.13492 39.8609 3.14237 39.8642 3.15202 39.8642C3.16139 39.8642 3.16856 39.8609 3.17297 39.8543C3.17793 39.8471 3.18069 39.8372 3.18069 39.8245C3.18069 39.8113 3.17793 39.8013 3.17297 39.7947C3.16856 39.7881 3.16139 39.7848 3.15202 39.7848ZM3.15202 39.7539C3.17545 39.7539 3.19337 39.7602 3.20606 39.7727C3.21929 39.7853 3.22591 39.8024 3.22591 39.8245C3.22591 39.8465 3.21929 39.8639 3.20606 39.8763C3.19337 39.889 3.17545 39.8951 3.15202 39.8951C3.1283 39.8951 3.11011 39.889 3.09687 39.8763C3.08419 39.8639 3.07812 39.8465 3.07812 39.8245C3.07812 39.8024 3.08419 39.7853 3.09687 39.7727C3.11011 39.7602 3.1283 39.7539 3.15202 39.7539Z" fill="white"/>
<path d="M3.25391 39.8386V39.7559H3.29692V39.7702V39.7978V39.8198V39.8441C3.29747 39.8485 3.29857 39.8518 3.30023 39.854C3.30161 39.8562 3.30381 39.8584 3.30684 39.8606C3.3096 39.8623 3.31291 39.8628 3.31677 39.8628C3.32614 39.8628 3.33359 39.8595 3.33883 39.8529C3.34379 39.8457 3.34655 39.8358 3.34655 39.8231V39.7559H3.38956V39.8915H3.34655V39.8717C3.33993 39.8799 3.33276 39.8857 3.32559 39.8893C3.31815 39.8929 3.31015 39.8948 3.30133 39.8948C3.28589 39.8948 3.27403 39.8901 3.26604 39.8805C3.25777 39.8711 3.25391 39.857 3.25391 39.8386L3.25391 39.8386Z" fill="white"/>
<path d="M3.51883 39.7041V39.7328H3.49568C3.48906 39.7328 3.48465 39.7339 3.48244 39.7361C3.48023 39.7383 3.47913 39.7422 3.47913 39.7471V39.7559H3.51553V39.7868H3.47913V39.8916H3.43612V39.7868H3.41406V39.7559H3.43612V39.7471C3.43612 39.7325 3.43998 39.7217 3.44825 39.7151C3.45625 39.708 3.46865 39.7041 3.48575 39.7041L3.51883 39.7041Z" fill="white"/>
<path d="M3.68717 39.7848C3.67752 39.7848 3.67008 39.7881 3.66512 39.7947C3.65988 39.8013 3.6574 39.8113 3.6574 39.8245C3.6574 39.8372 3.65988 39.8471 3.66512 39.8543C3.67008 39.8609 3.67752 39.8642 3.68717 39.8642C3.69655 39.8642 3.70372 39.8609 3.70813 39.8543C3.71309 39.8471 3.71585 39.8372 3.71585 39.8245C3.71585 39.8113 3.71309 39.8013 3.70813 39.7947C3.70372 39.7881 3.69655 39.7848 3.68717 39.7848ZM3.68717 39.7539C3.71061 39.7539 3.72853 39.7602 3.74121 39.7727C3.75445 39.7853 3.76106 39.8024 3.76106 39.8245C3.76106 39.8465 3.75445 39.8639 3.74121 39.8763C3.72853 39.889 3.71061 39.8951 3.68717 39.8951C3.66346 39.8951 3.64526 39.889 3.63203 39.8763C3.61935 39.8639 3.61328 39.8465 3.61328 39.8245C3.61328 39.8024 3.61935 39.7853 3.63203 39.7727C3.64526 39.7602 3.66346 39.7539 3.68717 39.7539Z" fill="white"/>
<path d="M3.91759 39.7793C3.92338 39.7705 3.93 39.7644 3.93744 39.7605C3.94461 39.7561 3.95288 39.7539 3.96171 39.7539C3.9777 39.7539 3.98983 39.7589 3.9981 39.7682C4.0061 39.7779 4.01023 39.7914 4.01023 39.8091V39.8918H3.96612V39.8212V39.819C3.96667 39.8176 3.96722 39.8157 3.96722 39.8135C3.96722 39.8041 3.96557 39.7969 3.96281 39.7925C3.95978 39.7881 3.95509 39.7859 3.94847 39.7859C3.9402 39.7859 3.93414 39.7892 3.92972 39.7958C3.92531 39.8024 3.92311 39.8124 3.92311 39.8256V39.8918H3.87899V39.8212C3.87899 39.8066 3.87734 39.7969 3.87458 39.7925C3.87238 39.7881 3.86796 39.7859 3.86135 39.7859C3.85307 39.7859 3.84701 39.7898 3.8426 39.7969C3.83819 39.8035 3.83598 39.8132 3.83598 39.8256V39.8918H3.79297V39.7561H3.83598V39.776C3.84094 39.7688 3.84701 39.7633 3.85363 39.7594C3.8608 39.7558 3.86852 39.7539 3.87679 39.7539C3.88616 39.7539 3.89443 39.7561 3.90105 39.7605C3.90822 39.7649 3.91373 39.7713 3.91759 39.7793L3.91759 39.7793Z" fill="white"/>
<path d="M4.10965 39.8311C4.1 39.8311 4.0931 39.8328 4.08869 39.8355C4.08428 39.8385 4.08207 39.843 4.08207 39.8487C4.08207 39.8548 4.08373 39.8592 4.08759 39.862C4.09117 39.865 4.09641 39.8664 4.10303 39.8664C4.11102 39.8664 4.11764 39.8636 4.12288 39.8576C4.12867 39.8518 4.1317 39.8443 4.1317 39.8355V39.8311H4.10965ZM4.17582 39.8146V39.8918H4.1317V39.8719C4.12564 39.8802 4.11902 39.886 4.11185 39.8896C4.10524 39.8931 4.09641 39.8951 4.08538 39.8951C4.07132 39.8951 4.06002 39.8912 4.05119 39.8829C4.04292 39.8749 4.03906 39.8642 4.03906 39.851C4.03906 39.8355 4.04403 39.8242 4.0545 39.8168C4.06553 39.8096 4.08263 39.8057 4.10634 39.8057H4.1317V39.8024C4.1317 39.7953 4.12867 39.79 4.12288 39.787C4.11764 39.7842 4.10965 39.7826 4.09862 39.7826C4.08897 39.7826 4.08014 39.7837 4.07215 39.7859C4.0647 39.7875 4.05726 39.79 4.05009 39.7936V39.7605C4.05947 39.7583 4.06884 39.7569 4.07766 39.7561C4.08704 39.7547 4.09669 39.7539 4.10634 39.7539C4.1306 39.7539 4.14825 39.7589 4.15928 39.7682C4.1703 39.7779 4.17582 39.7933 4.17582 39.8146V39.8146Z" fill="white"/>
<path d="M4.31521 39.7936C4.31135 39.7914 4.30776 39.79 4.30418 39.7892C4.30032 39.7886 4.29646 39.7881 4.29205 39.7881C4.28102 39.7881 4.27247 39.792 4.26668 39.7991C4.26061 39.8066 4.25786 39.8168 4.25786 39.83V39.8918H4.21484V39.7561H4.25786V39.7793C4.26365 39.7704 4.26999 39.7644 4.2766 39.7605C4.28377 39.7561 4.2926 39.7539 4.30307 39.7539H4.30748H4.31521L4.31521 39.7936Z" fill="white"/>
<path d="M4.3948 39.8311C4.38515 39.8311 4.37826 39.8328 4.37385 39.8355C4.36944 39.8385 4.36723 39.843 4.36723 39.8487C4.36723 39.8548 4.36889 39.8592 4.37275 39.862C4.37633 39.865 4.38157 39.8664 4.38819 39.8664C4.39618 39.8664 4.4028 39.8636 4.40804 39.8576C4.41383 39.8518 4.41686 39.8443 4.41686 39.8355V39.8311H4.3948ZM4.46098 39.8146V39.8918H4.41686V39.8719C4.41079 39.8802 4.40418 39.886 4.39701 39.8896C4.39039 39.8931 4.38157 39.8951 4.37054 39.8951C4.35648 39.8951 4.34517 39.8912 4.33635 39.8829C4.32808 39.8749 4.32422 39.8642 4.32422 39.851C4.32422 39.8355 4.32918 39.8242 4.33966 39.8168C4.35069 39.8096 4.36778 39.8057 4.39149 39.8057H4.41686V39.8024C4.41686 39.7953 4.41383 39.79 4.40804 39.787C4.4028 39.7842 4.3948 39.7826 4.38377 39.7826C4.37412 39.7826 4.3653 39.7837 4.35731 39.7859C4.34986 39.7875 4.34242 39.79 4.33525 39.7936V39.7605C4.34462 39.7583 4.354 39.7569 4.36282 39.7561C4.37219 39.7547 4.38184 39.7539 4.39149 39.7539C4.41576 39.7539 4.4334 39.7589 4.44443 39.7682C4.45546 39.7779 4.46098 39.7933 4.46098 39.8146V39.8146Z" fill="white"/>
<path d="M0.479772 39.9502V39.9789H0.456613C0.449995 39.9789 0.445584 39.98 0.443378 39.9822C0.441172 39.9844 0.44007 39.9882 0.44007 39.9932V40.002H0.476464V40.0329H0.44007V40.1377H0.397057V40.0329H0.375V40.002H0.397057V39.9932C0.397057 39.9786 0.400917 39.9678 0.409189 39.9612C0.417185 39.9541 0.429592 39.9502 0.446687 39.9502L0.479772 39.9502Z" fill="white"/>
<path d="M0.600362 40.0387C0.596502 40.0365 0.592918 40.0351 0.589333 40.0343C0.585473 40.0338 0.581613 40.0332 0.577201 40.0332C0.566173 40.0332 0.557626 40.0371 0.551835 40.0442C0.545769 40.0517 0.543012 40.0619 0.543012 40.0751V40.1369H0.5V40.0012H0.543012V40.0244C0.548802 40.0156 0.555144 40.0095 0.561761 40.0056C0.568929 40.0012 0.577752 39.999 0.588229 39.999H0.592641H0.600361L0.600362 40.0387Z" fill="white"/>
<path d="M0.683267 40.0299C0.673617 40.0299 0.666172 40.0332 0.661209 40.0398C0.655971 40.0464 0.653489 40.0564 0.653489 40.0696C0.653489 40.0823 0.65597 40.0922 0.661209 40.0994C0.666172 40.106 0.673617 40.1093 0.683267 40.1093C0.692641 40.1093 0.69981 40.106 0.704222 40.0994C0.709185 40.0922 0.711942 40.0823 0.711942 40.0696C0.711942 40.0564 0.709185 40.0464 0.704222 40.0398C0.69981 40.0332 0.692642 40.0299 0.683267 40.0299ZM0.683267 39.999C0.706703 39.999 0.724625 40.0054 0.737307 40.0178C0.750541 40.0305 0.757159 40.0475 0.757159 40.0696C0.757159 40.0917 0.750541 40.109 0.737307 40.1214C0.724624 40.1341 0.706703 40.1402 0.683267 40.1402C0.659555 40.1402 0.641358 40.1341 0.628123 40.1214C0.61544 40.109 0.609375 40.0917 0.609375 40.0696C0.609375 40.0475 0.615441 40.0305 0.628123 40.0178C0.641358 40.0054 0.659555 39.999 0.683267 39.999Z" fill="white"/>
<path d="M0.913686 40.0244C0.919476 40.0156 0.926093 40.0095 0.933538 40.0056C0.940706 40.0012 0.948978 39.999 0.957801 39.999C0.973792 39.999 0.985924 40.004 0.994195 40.0134C1.00219 40.023 1.00633 40.0365 1.00633 40.0542V40.1369H0.962212V40.0663V40.0641C0.962764 40.0627 0.963315 40.0608 0.963315 40.0586C0.963315 40.0492 0.961661 40.042 0.958904 40.0376C0.955871 40.0332 0.951183 40.031 0.944567 40.031C0.936295 40.031 0.93023 40.0343 0.925818 40.0409C0.921407 40.0476 0.919201 40.0575 0.919201 40.0707V40.1369H0.875086V40.0663C0.875086 40.0517 0.873432 40.042 0.870675 40.0376C0.868469 40.0332 0.864058 40.031 0.85744 40.031C0.849169 40.031 0.843103 40.0349 0.838692 40.042C0.83428 40.0487 0.832075 40.0583 0.832075 40.0707V40.1369H0.789062V40.0012H0.832075V40.0211C0.837038 40.0139 0.843103 40.0084 0.849721 40.0045C0.856889 40.001 0.86461 39.999 0.87288 39.999C0.882255 39.999 0.890526 40.0012 0.897144 40.0056C0.904312 40.0101 0.909827 40.0164 0.913687 40.0244L0.913686 40.0244Z" fill="white"/>
<path d="M1.17835 39.9648V40.0023H1.22247V40.0332H1.17835V40.0906C1.17835 40.0972 1.17945 40.1016 1.18166 40.1038C1.18387 40.106 1.18855 40.1071 1.196 40.1071H1.21916V40.138H1.18166C1.16456 40.138 1.15243 40.1347 1.14526 40.1281C1.13782 40.1209 1.13424 40.1082 1.13424 40.0906V40.0332H1.11328V40.0023H1.13424V39.9648L1.17835 39.9648Z" fill="white"/>
<path d="M1.38565 40.055V40.1377H1.34264V40.0748C1.34264 40.0632 1.34209 40.055 1.34154 40.0506C1.34071 40.0461 1.33961 40.0428 1.33823 40.0406C1.33658 40.0379 1.33437 40.0357 1.33161 40.034C1.32858 40.0326 1.32527 40.0318 1.32169 40.0318C1.31286 40.0318 1.3057 40.0357 1.30073 40.0428C1.29549 40.0494 1.29301 40.0591 1.29301 40.0715V40.1377H1.25V39.9502H1.29301V40.0219C1.29963 40.0147 1.30652 40.0092 1.31397 40.0053C1.32114 40.0018 1.32941 39.9998 1.33823 39.9998C1.35367 39.9998 1.36525 40.0048 1.37352 40.0142C1.38152 40.0238 1.38565 40.0373 1.38565 40.055V40.055Z" fill="white"/>
<path d="M1.55854 40.0685V40.0817H1.45818C1.45873 40.0914 1.46204 40.0988 1.4681 40.1038C1.47472 40.109 1.48354 40.1115 1.49457 40.1115C1.50395 40.1115 1.5136 40.1104 1.52325 40.1082C1.53262 40.1054 1.54227 40.101 1.55192 40.095V40.1292C1.54144 40.133 1.53124 40.1355 1.52104 40.1369C1.51139 40.1391 1.50147 40.1402 1.49126 40.1402C1.46617 40.1402 1.44715 40.1341 1.43391 40.1214C1.42068 40.109 1.41406 40.0917 1.41406 40.0696C1.41406 40.0475 1.42068 40.0305 1.43391 40.0178C1.44715 40.0054 1.46535 39.999 1.48906 39.999C1.50946 39.999 1.526 40.0054 1.53869 40.0178C1.55192 40.0305 1.55854 40.0473 1.55854 40.0685L1.55854 40.0685ZM1.51443 40.0542C1.51443 40.0462 1.51167 40.0398 1.50671 40.0354C1.50229 40.0305 1.49595 40.0277 1.48796 40.0277C1.47969 40.0277 1.47307 40.0299 1.46811 40.0343C1.46287 40.0387 1.45956 40.0453 1.45818 40.0542H1.51443Z" fill="white"/>
<path d="M1.67578 39.958H1.72762L1.79269 40.0815V39.958H1.8368V40.1378H1.78497L1.71879 40.0143V40.1378H1.67578V39.958Z" fill="white"/>
<path d="M1.94499 40.0299C1.93534 40.0299 1.92789 40.0332 1.92293 40.0398C1.91769 40.0464 1.91521 40.0564 1.91521 40.0696C1.91521 40.0823 1.91769 40.0922 1.92293 40.0994C1.92789 40.106 1.93534 40.1093 1.94499 40.1093C1.95436 40.1093 1.96153 40.106 1.96594 40.0994C1.9709 40.0922 1.97366 40.0823 1.97366 40.0696C1.97366 40.0564 1.9709 40.0464 1.96594 40.0398C1.96153 40.0332 1.95436 40.0299 1.94499 40.0299ZM1.94499 39.999C1.96842 39.999 1.98634 40.0054 1.99903 40.0178C2.01226 40.0305 2.01888 40.0475 2.01888 40.0696C2.01888 40.0917 2.01226 40.109 1.99903 40.1214C1.98634 40.1341 1.96842 40.1402 1.94499 40.1402C1.92127 40.1402 1.90308 40.1341 1.88984 40.1214C1.87716 40.109 1.87109 40.0917 1.87109 40.0696C1.87109 40.0475 1.87716 40.0305 1.88984 40.0178C1.90308 40.0054 1.92127 39.999 1.94499 39.999Z" fill="white"/>
<path d="M2.05078 40.0847V40.002H2.09379V40.0163V40.0439V40.0659V40.0902C2.09435 40.0946 2.09545 40.0979 2.0971 40.1001C2.09848 40.1023 2.10069 40.1045 2.10372 40.1067C2.10648 40.1084 2.10979 40.1089 2.11365 40.1089C2.12302 40.1089 2.13046 40.1056 2.1357 40.099C2.14067 40.0918 2.14342 40.0819 2.14342 40.0692V40.002H2.18644V40.1376H2.14342V40.1178C2.13681 40.126 2.12964 40.1318 2.12247 40.1354C2.11502 40.139 2.10703 40.1409 2.0982 40.1409C2.08276 40.1409 2.07091 40.1362 2.06291 40.1266C2.05464 40.1172 2.05078 40.1031 2.05078 40.0847L2.05078 40.0847Z" fill="white"/>
<path d="M2.36222 40.0542V40.1369H2.3192V40.074C2.3192 40.0624 2.31865 40.0542 2.3181 40.0498C2.31727 40.0453 2.31617 40.042 2.31479 40.0398C2.31314 40.0371 2.31093 40.0349 2.30818 40.0332C2.30514 40.0318 2.30183 40.031 2.29825 40.031C2.28943 40.031 2.28226 40.0349 2.2773 40.042C2.27206 40.0487 2.26957 40.0583 2.26957 40.0707V40.1369H2.22656V40.0012H2.26957V40.0211C2.27619 40.0139 2.28309 40.0084 2.29053 40.0045C2.2977 40.001 2.30597 39.999 2.31479 39.999C2.33023 39.999 2.34181 40.004 2.35008 40.0134C2.35808 40.023 2.36222 40.0365 2.36222 40.0542V40.0542Z" fill="white"/>
<path d="M2.48828 39.958H2.56438C2.58782 39.958 2.60546 39.9632 2.61732 39.9734C2.62972 39.9831 2.63607 39.9974 2.63607 40.0165C2.63607 40.0358 2.62972 40.0504 2.61732 40.0606C2.60546 40.0702 2.58782 40.0749 2.56438 40.0749H2.5346V40.1378H2.48828L2.48828 39.958ZM2.5346 39.9911V40.0418H2.55997C2.56879 40.0418 2.57569 40.0396 2.58093 40.0352C2.58589 40.0308 2.58865 40.0247 2.58865 40.0165C2.58865 40.0085 2.58589 40.0021 2.58093 39.9977C2.57569 39.9933 2.56879 39.9911 2.55997 39.9911L2.5346 39.9911Z" fill="white"/>
<path d="M2.76833 40.0387C2.76447 40.0365 2.76089 40.0351 2.7573 40.0343C2.75344 40.0338 2.74958 40.0332 2.74517 40.0332C2.73414 40.0332 2.72559 40.0371 2.7198 40.0442C2.71374 40.0517 2.71098 40.0619 2.71098 40.0751V40.1369H2.66797V40.0012H2.71098V40.0244C2.71677 40.0156 2.72311 40.0095 2.72973 40.0056C2.7369 40.0012 2.74572 39.999 2.7562 39.999H2.76061H2.76833L2.76833 40.0387Z" fill="white"/>
<path d="M2.85124 40.0299C2.84159 40.0299 2.83414 40.0332 2.82918 40.0398C2.82394 40.0464 2.82146 40.0564 2.82146 40.0696C2.82146 40.0823 2.82394 40.0922 2.82918 40.0994C2.83414 40.106 2.84159 40.1093 2.85124 40.1093C2.86061 40.1093 2.86778 40.106 2.87219 40.0994C2.87715 40.0922 2.87991 40.0823 2.87991 40.0696C2.87991 40.0564 2.87715 40.0464 2.87219 40.0398C2.86778 40.0332 2.86061 40.0299 2.85124 40.0299ZM2.85124 39.999C2.87467 39.999 2.89259 40.0054 2.90528 40.0178C2.91851 40.0305 2.92513 40.0475 2.92513 40.0696C2.92513 40.0917 2.91851 40.109 2.90528 40.1214C2.89259 40.1341 2.87467 40.1402 2.85124 40.1402C2.82752 40.1402 2.80933 40.1341 2.79609 40.1214C2.78341 40.109 2.77734 40.0917 2.77734 40.0696C2.77734 40.0475 2.78341 40.0305 2.79609 40.0178C2.80933 40.0054 2.82752 39.999 2.85124 39.999Z" fill="white"/>
<path d="M2.95433 40.0018H2.99714V40.1346C2.99714 40.1522 2.99275 40.1657 2.98397 40.1753C2.97519 40.1846 2.96256 40.1895 2.94664 40.1895H2.92578V40.1621H2.93237C2.94115 40.1621 2.94692 40.1602 2.94993 40.1566C2.95268 40.1528 2.95433 40.1456 2.95433 40.1346V40.0018ZM2.95433 39.9502H2.99714V39.9853H2.95433V39.9502Z" fill="white"/>
<path d="M3.17573 40.0685V40.0817H3.07537C3.07592 40.0914 3.07923 40.0988 3.08529 40.1038C3.09191 40.109 3.10073 40.1115 3.11176 40.1115C3.12113 40.1115 3.13078 40.1104 3.14043 40.1082C3.14981 40.1054 3.15946 40.101 3.16911 40.095V40.1292C3.15863 40.133 3.14843 40.1355 3.13823 40.1369C3.12858 40.1391 3.11865 40.1402 3.10845 40.1402C3.08336 40.1402 3.06434 40.1341 3.0511 40.1214C3.03787 40.109 3.03125 40.0917 3.03125 40.0696C3.03125 40.0475 3.03787 40.0305 3.0511 40.0178C3.06434 40.0054 3.08253 39.999 3.10625 39.999C3.12665 39.999 3.14319 40.0054 3.15587 40.0178C3.16911 40.0305 3.17573 40.0473 3.17573 40.0685L3.17573 40.0685ZM3.13161 40.0542C3.13161 40.0462 3.12886 40.0398 3.12389 40.0354C3.11948 40.0305 3.11314 40.0277 3.10514 40.0277C3.09687 40.0277 3.09026 40.0299 3.08529 40.0343C3.08005 40.0387 3.07675 40.0453 3.07537 40.0542H3.13161Z" fill="white"/>
<path d="M3.31833 40.0056V40.0409C3.31226 40.0373 3.30647 40.0349 3.30068 40.0332C3.29462 40.031 3.28855 40.0299 3.28193 40.0299C3.27008 40.0299 3.26043 40.0338 3.25326 40.0409C3.24664 40.0475 3.24333 40.0572 3.24333 40.0696C3.24333 40.0823 3.24664 40.0922 3.25326 40.0994C3.26043 40.106 3.27008 40.1093 3.28193 40.1093C3.28855 40.1093 3.29462 40.1088 3.30068 40.1071C3.3073 40.1049 3.31309 40.1016 3.31833 40.0972V40.1325C3.31171 40.1355 3.30454 40.1372 3.29737 40.138C3.29076 40.1394 3.28359 40.1402 3.27642 40.1402C3.25216 40.1402 3.23286 40.1341 3.21907 40.1214C3.20584 40.109 3.19922 40.0917 3.19922 40.0696C3.19922 40.0475 3.20584 40.0305 3.21907 40.0178C3.23286 40.0054 3.25216 39.999 3.27642 39.999C3.28359 39.999 3.29076 39.9999 3.29737 40.0012C3.30454 40.0021 3.31171 40.0034 3.31833 40.0056Z" fill="white"/>
<path d="M3.40101 39.9639V40.0014H3.44512V40.0322H3.40101V40.0896C3.40101 40.0962 3.40211 40.1006 3.40432 40.1028C3.40652 40.105 3.41121 40.1061 3.41865 40.1061H3.44181V40.137H3.40432C3.38722 40.137 3.37509 40.1337 3.36792 40.1271C3.36048 40.1199 3.35689 40.1072 3.35689 40.0896V40.0322H3.33594V40.0014H3.35689V39.9639L3.40101 39.9639Z" fill="white"/>
</svg>
