<svg width="64" height="47" viewBox="0 0 64 47" fill="none" xmlns="http://www.w3.org/2000/svg">
<path d="M35.6923 42.0526L35.6923 14.8421C35.6967 10.9071 37.2542 7.1345 40.023 4.3521C42.7918 1.56962 46.5458 0.00443437 50.4615 1.18357e-06C51.1144 1.1265e-06 51.7405 0.260586 52.2021 0.72453C52.6638 1.1884 52.9231 1.81762 52.9231 2.47368C52.9231 3.12974 52.6638 3.75897 52.2021 4.22284C51.7405 4.68678 51.1144 4.94737 50.4615 4.94737C47.851 4.9503 45.3484 5.99376 43.5025 7.84874C41.6566 9.70373 40.6183 12.2187 40.6154 14.8421L40.6154 17.3158L59.0769 17.3158C60.3821 17.3173 61.6335 17.839 62.5564 18.7665C63.4793 19.694 63.9985 20.9515 64 22.2632L64 42.0526C63.9985 43.3643 63.4793 44.6218 62.5564 45.5493C61.6335 46.4768 60.3821 46.9985 59.0769 47L40.6154 47C39.3102 46.9985 38.0588 46.4768 37.1359 45.5493C36.213 44.6218 35.6938 43.3643 35.6923 42.0526ZM4.92308 47L23.3846 47C24.6898 46.9985 25.9412 46.4768 26.8641 45.5493C27.787 44.6218 28.3062 43.3643 28.3077 42.0526L28.3077 22.2632C28.3062 20.9515 27.787 19.694 26.8641 18.7665C25.9411 17.839 24.6898 17.3173 23.3846 17.3158L4.92307 17.3158L4.92307 14.8421C4.92599 12.2187 5.96432 9.70373 7.8102 7.84874C9.65608 5.99376 12.1587 4.9503 14.7692 4.94737C15.4221 4.94737 16.0482 4.68678 16.5098 4.22284C16.9715 3.75897 17.2308 3.12975 17.2308 2.47369C17.2308 1.81763 16.9715 1.1884 16.5098 0.724533C16.0482 0.260589 15.4221 4.24682e-06 14.7692 4.30389e-06C10.8535 0.00443749 7.09947 1.56963 4.33073 4.35211C1.56191 7.13451 0.00440792 10.9071 -2.81133e-06 14.8421L-4.32513e-07 42.0526C0.0014963 43.3643 0.520668 44.6218 1.44361 45.5493C2.36655 46.4768 3.61787 46.9985 4.92308 47Z" fill="#FFCC22"/>
</svg>
