<svg width="27" height="26" viewBox="0 0 27 26" fill="none" xmlns="http://www.w3.org/2000/svg">
<path d="M26.6007 9.80055C26.4845 9.42306 26.2609 9.09058 25.9592 8.84648C25.6575 8.60238 25.2917 8.458 24.9095 8.43218L17.9968 7.93185L15.4326 1.25364C15.2938 0.884432 15.0504 0.567196 14.7343 0.343496C14.4182 0.119796 14.0442 6.74844e-05 13.6613 0H13.6594C13.277 0.000705435 12.9037 0.120739 12.5883 0.344405C12.2729 0.568071 12.0302 0.88496 11.8917 1.25364L9.28926 7.97041L2.41485 8.43218C2.03262 8.458 1.66677 8.60238 1.36506 8.84648C1.06335 9.09058 0.839786 9.42306 0.723529 9.80055C0.600886 10.1834 0.592543 10.5956 0.699586 10.9834C0.80663 11.3712 1.0241 11.7167 1.32368 11.9749L6.61224 16.5982L5.03912 22.998C4.9307 23.4291 4.95064 23.884 5.09633 24.3032C5.24203 24.7224 5.5067 25.0863 5.85569 25.3473C6.19263 25.6009 6.59556 25.7436 7.01204 25.757C7.42852 25.7705 7.83926 25.6539 8.1908 25.4226L13.6467 21.8479C13.6539 21.8422 13.6613 21.8385 13.6776 21.8479L19.5481 25.6943C19.8668 25.9049 20.2395 26.0112 20.6176 25.9991C20.9956 25.987 21.3613 25.8572 21.6668 25.6266C21.9831 25.3902 22.2229 25.0606 22.355 24.6808C22.487 24.3011 22.5051 23.889 22.407 23.4984L20.7357 16.507L26.0006 11.9749C26.3002 11.7167 26.5176 11.3712 26.6247 10.9834C26.7318 10.5956 26.7234 10.1834 26.6007 9.80055Z" fill="#FFCC22"/>
</svg>
