<svg width="32" height="32" viewBox="0 0 32 32" fill="none" xmlns="http://www.w3.org/2000/svg">
<path d="M16 18.347C17.2953 18.347 18.3473 17.295 18.3473 15.9997C18.3473 14.7044 17.2953 13.6524 16 13.6524C14.704 13.6524 13.6527 14.7044 13.6527 15.9997C13.6527 17.295 14.704 18.347 16 18.347ZM21.0681 11.4727C21.7754 11.4727 22.3466 10.9 22.3466 10.1949C22.3466 9.48817 21.7752 8.91697 21.0681 8.91697C20.3627 8.91697 19.7908 9.4884 19.7908 10.1949C19.7906 10.9 20.3627 11.4727 21.0681 11.4727ZM20.6946 16C20.6946 18.5926 18.5926 20.6946 16 20.6946C13.4074 20.6946 11.3054 18.5926 11.3054 16C11.3054 15.4547 11.4034 14.9319 11.5748 14.444H9.30536V20.8074C9.30536 21.9061 10.2047 22.8054 11.304 22.8054H20.3635C21.4622 22.8054 22.3615 21.9061 22.3615 20.8074V12.444H19.0602C20.0595 13.3054 20.6947 14.5773 20.6947 16H20.6946ZM16 0C7.16343 0 0 7.16343 0 16C0 24.8366 7.16343 32 16 32C24.8366 32 32 24.8366 32 16C32 7.16343 24.8366 0 16 0ZM24.5429 22.488C24.5429 23.9541 23.3435 25.1547 21.8761 25.1547H9.7904C8.32366 25.1547 7.12366 23.9541 7.12366 22.488V10.4006C7.12366 8.93314 8.32366 7.73383 9.7904 7.73383H21.8778C23.3439 7.73383 24.5446 8.93314 24.5446 10.4006V22.488H24.5429Z" fill="black"/>
</svg>
