<svg width="12" height="18" viewBox="0 0 12 18" fill="none" xmlns="http://www.w3.org/2000/svg">
<path d="M2.0251 3.96012C2.0251 1.76995 3.8019 0 6.00006 0C8.19822 0 9.97502 1.76995 9.97502 3.96012C9.97502 6.15007 8.19844 7.92024 6.00006 7.92024C3.8019 7.92003 2.0251 6.11996 2.0251 3.96012ZM5.30752 9.11992C5.18716 9.11992 5.09663 9.23983 5.12688 9.33002L5.45813 10.5601H6.57224L6.90349 9.33002C6.93353 9.21011 6.8432 9.11992 6.72285 9.11992H5.30752ZM5.45813 10.9499L4.70532 16.8599L6.00005 18L7.32505 16.8599L6.57224 10.9499H5.45813ZM2.92852 9.11992C1.21199 9.11992 -0.112796 10.5599 0.00760046 12.27L0.429165 18H4.40413L3.44042 9.11997L2.92852 9.11992ZM9.07147 9.11992H8.55959L7.59588 17.9999H11.5708L11.9924 12.2699C12.1128 10.56 10.7878 9.11987 9.07149 9.11987L9.07147 9.11992Z" fill="white"/>
</svg>
